<svg xmlns="http://www.w3.org/2000/svg" xmlns:xlink="http://www.w3.org/1999/xlink" version="1.1" id="Layer_1" x="0px" y="0px" viewBox="0 0 500 443.71" style="enable-background:new 0 0 500 443.71;" xml:space="preserve">
<style type="text/css">
	.st0{fill:none;stroke:#fff;stroke-width:5;stroke-linecap:round;stroke-linejoin:round;stroke-miterlimit:10;}
</style>
<g>
	<path class="st0" d="M228.74,63.82c-8.28,10.85-16.56,21.69-24.84,32.54c9.23,10.75,18.46,21.5,27.69,32.24"/>
	<path class="st0" d="M34.92,61.02c12.83,45.02,25.66,90.03,38.48,135.05c-24.02-22.27-48.05-44.55-72.07-66.82   C12.53,106.51,23.72,83.76,34.92,61.02z"/>
	<path class="st0" d="M34.92,61.02C48.45,41.43,61.97,21.84,75.5,2.25c31.14,8.63,62.28,17.26,93.41,25.89   C124.25,39.1,79.58,50.06,34.92,61.02z"/>
	<path class="st0" d="M73.4,196.07c33.68,10.28,67.37,20.55,101.05,30.83c-41.78-38.68-83.56-77.37-125.34-116.05   c19.29-2.03,38.58-4.06,57.87-6.09c31.41,36.89,62.82,73.78,94.23,110.67"/>
	<path class="st0" d="M249.65,127.85c-6.02,0.25-12.04,0.5-18.05,0.76c-22.64-4.8-45.28-9.6-67.92-14.4   c-6.65,3.62-13.29,7.23-19.94,10.85c23.67,21.69,47.35,43.38,71.02,65.07C226.38,169.36,238.01,148.61,249.65,127.85z"/>
	<path class="st0" d="M214.75,190.12c-4.34,8.36-8.84,16.8-13.53,25.31c-14.24,25.86-28.88,50.1-43.62,72.77   c-16.25-9.8-32.5-19.59-48.75-29.39"/>
	<path class="st0" d="M201.22,215.43c9.8,27.52,19.59,55.05,29.39,82.57c6.14,16.56,12.28,33.12,18.43,49.68   c-11.82,16.79-23.64,33.59-35.45,50.38c11.9,12.36,23.79,24.72,35.69,37.09c12.36-12.75,24.72-25.5,37.09-38.25"/>
	<path class="st0" d="M215.97,256.87c-14.17,24.13-28.34,48.25-42.51,72.38c-16.48-9.41-32.96-18.81-49.45-28.22"/>
	<path class="st0" d="M137.78,340.45c16.56,9.8,33.12,19.59,49.68,29.39c14.1-24.74,28.2-49.48,42.3-74.22"/>
	<path class="st0" d="M269.99,63.61c8.28,10.85,16.56,21.69,24.84,32.54c-9.23,10.75-18.46,21.5-27.69,32.24"/>
	<path class="st0" d="M463.81,60.81c-12.83,45.02-25.66,90.03-38.48,135.05c24.02-22.27,48.05-44.55,72.07-66.82   C486.2,106.29,475.01,83.55,463.81,60.81z"/>
	<path class="st0" d="M463.81,60.81c-13.53-19.59-27.06-39.18-40.58-58.78c-31.14,8.63-62.28,17.26-93.41,25.89   C374.48,38.88,419.15,49.85,463.81,60.81z"/>
	<path class="st0" d="M425.33,195.86c-33.68,10.28-67.37,20.55-101.05,30.83c41.78-38.68,83.56-77.37,125.34-116.05   c-19.29-2.03-38.58-4.06-57.87-6.09c-31.41,36.89-62.82,73.78-94.23,110.67"/>
	<path class="st0" d="M249.65,127.85c5.83,0.18,11.66,0.36,17.49,0.54c22.64-4.8,45.28-9.6,67.92-14.4   c6.65,3.62,13.29,7.23,19.94,10.85c-23.67,21.69-47.35,43.38-71.02,65.07C272.54,169.22,261.09,148.53,249.65,127.85z"/>
	<path class="st0" d="M283.98,189.91c4.34,8.36,8.84,16.8,13.53,25.31c14.24,25.86,28.88,50.1,43.62,72.77   c16.25-9.8,32.5-19.59,48.75-29.39"/>
	<path class="st0" d="M297.51,215.22c-9.19,27.06-18.97,54.59-29.39,82.57c-6.3,16.91-12.66,33.54-19.09,49.89"/>
	<path class="st0" d="M282.76,256.66c14.17,24.13,28.34,48.25,42.51,72.38c16.48-9.41,32.96-18.81,49.45-28.22"/>
	<path class="st0" d="M360.95,340.23c-16.56,9.8-33.12,19.59-49.68,29.39c-14.1-24.74-28.2-49.48-42.3-74.22"/>
	<path class="st0" d="M216.85,188.02c22.04,0.03,44.07,0.07,66.11,0.1"/>
	<path class="st0" d="M201.22,215.43c32.1-0.07,64.19-0.14,96.29-0.21"/>
	<path class="st0" d="M264.06,155.3c-10.64,20.02-21.29,40.04-31.93,60.06c5.29,31.01,10.57,62.01,15.86,93.02   c6.88-31.03,13.76-62.06,20.64-93.1c-11.28-19.98-22.57-39.96-33.85-59.95"/>
	<path class="st0" d="M229.76,295.62c6.07,4.25,12.15,8.51,18.22,12.76c6.99-4.32,13.99-8.65,20.98-12.97"/>
</g>
</svg>